<svg width="22" height="22" viewBox="0 0 22 22" fill="none" xmlns="http://www.w3.org/2000/svg">
<path d="M17.8747 20.1667C18.2393 20.1667 18.5891 20.0219 18.8469 19.764C19.1048 19.5062 19.2497 19.1564 19.2497 18.7917C19.2497 18.4271 19.1048 18.0773 18.8469 17.8195C18.5891 17.5616 18.2393 17.4167 17.8747 17.4167C17.51 17.4167 17.1603 17.5616 16.9024 17.8195C16.6445 18.0773 16.4997 18.4271 16.4997 18.7917C16.4997 19.1564 16.6445 19.5062 16.9024 19.764C17.1603 20.0219 17.51 20.1667 17.8747 20.1667ZM8.70801 20.1667C9.07268 20.1667 9.42242 20.0219 9.68028 19.764C9.93814 19.5062 10.083 19.1564 10.083 18.7917C10.083 18.4271 9.93814 18.0773 9.68028 17.8195C9.42242 17.5616 9.07268 17.4167 8.70801 17.4167C8.34334 17.4167 7.9936 17.5616 7.73574 17.8195C7.47787 18.0773 7.33301 18.4271 7.33301 18.7917C7.33301 19.1564 7.47787 19.5062 7.73574 19.764C7.9936 20.0219 8.34334 20.1667 8.70801 20.1667Z" fill="#FF0000" stroke="#FF0000" stroke-width="1.5" stroke-linecap="round" stroke-linejoin="round"/>
<path d="M4.58301 3.66671C4.42992 3.05529 3.66634 1.83337 1.83301 1.83337M18.333 13.75H4.79384C3.15851 13.75 2.29134 14.466 2.29134 15.5834C2.29134 16.7008 3.15851 17.4167 4.79384 17.4167H17.8747M4.58301 3.66671H20.1663L18.333 13.75H6.41634L4.58301 3.66671Z" stroke="#FF0000" stroke-width="1.5" stroke-linecap="round" stroke-linejoin="round"/>
</svg>
