<svg width="1146" height="213" viewBox="0 0 1146 213" fill="none" xmlns="http://www.w3.org/2000/svg">
<path d="M60.9244 9.15347C61.0548 9.15347 61.12 9.78474 61.12 11.0473C61.12 12.3098 61.0548 12.9411 60.9244 12.9411C58.9033 12.9411 56.426 17.0444 53.4922 25.2509C50.5585 33.247 47.9506 43.3474 45.6689 55.552L35.4985 110.473V180.86C35.4985 187.383 35.6615 192.118 35.9875 195.063C36.3134 198.009 36.9328 200.008 37.8455 201.06C38.8234 202.112 40.3556 202.639 42.4417 202.639C42.6373 202.639 42.7351 203.27 42.7351 204.532C42.7351 205.795 42.6373 206.426 42.4417 206.426C40.2903 206.426 38.5953 206.321 37.3565 206.111L30.0221 205.795L22.7855 206.111C21.4817 206.321 19.7214 206.426 17.5048 206.426C17.3744 206.426 17.3092 205.795 17.3092 204.532C17.3092 203.27 17.3744 202.639 17.5048 202.639C19.5909 202.639 21.1231 202.112 22.101 201.06C23.0789 200.008 23.7309 198.009 24.0568 195.063C24.448 191.907 24.6436 187.172 24.6436 180.86V117.101L10.366 45.4517C7.95375 33.247 5.93272 24.8301 4.30285 20.2007C2.73818 15.361 1.40168 12.9411 0.293376 12.9411C0.097792 12.9411 0 12.3098 0 11.0473C0 9.78474 0.097792 9.15347 0.293376 9.15347L3.32493 9.46911C4.75922 9.88994 5.76973 10.1004 6.35648 10.1004C8.63829 10.1004 11.9306 9.88994 16.2335 9.46911L22.6877 9.15347C22.8181 9.15347 22.8833 9.78474 22.8833 11.0473C22.8833 12.3098 22.8181 12.9411 22.6877 12.9411C21.5795 12.9411 20.6994 13.7828 20.0474 15.4662C19.4606 17.1496 19.1672 19.359 19.1672 22.0946C19.1672 25.4613 19.6236 29.4594 20.5363 34.0887L33.9338 102.266L42.9307 52.7113C44.6909 43.2422 45.5711 35.1408 45.5711 28.4073C45.5711 23.3571 45.0821 19.5695 44.1042 17.0444C43.1915 14.3088 41.855 12.9411 40.0947 12.9411C39.8991 12.9411 39.8013 12.3098 39.8013 11.0473C39.8013 9.78474 39.8991 9.15347 40.0947 9.15347L45.2777 9.46911C48.2767 9.88994 50.9496 10.1004 53.2966 10.1004C54.4049 10.1004 55.7414 9.88994 57.3061 9.46911L60.9244 9.15347ZM93.2783 210.214C87.2152 210.214 81.8041 205.69 77.0448 196.641C72.3508 187.383 68.7 174.968 66.0921 159.396C63.5495 143.615 62.2782 126.465 62.2782 107.948C62.2782 86.2738 63.9732 67.7568 67.3634 52.3957C70.7536 36.8242 75.089 25.1457 80.3698 17.36C85.7158 9.5743 91.1594 5.68147 96.701 5.68147C102.894 5.68147 108.338 10.416 113.032 19.8851C117.726 29.1438 121.312 41.4536 123.789 56.8146C126.332 72.1757 127.603 88.4832 127.603 105.738C127.603 124.887 126.039 142.457 122.909 158.449C119.78 174.442 115.575 187.067 110.294 196.326C105.079 205.584 99.4066 210.214 93.2783 210.214ZM96.5054 202.323C100.156 202.323 103.416 198.956 106.285 192.223C109.218 185.279 111.5 175.283 113.13 162.237C114.76 148.98 115.575 133.199 115.575 114.892C115.575 95.5328 114.662 78.2778 112.837 63.1273C111.011 47.7663 108.371 35.7721 104.916 27.1447C101.46 18.5174 97.4181 14.2037 92.7893 14.2037C86.8566 14.2037 82.293 21.4633 79.0985 35.9826C75.9039 50.2912 74.3066 70.3869 74.3066 96.2691C74.3066 116.68 75.252 134.987 77.1426 151.19C79.0985 167.182 81.7388 179.702 85.0638 188.751C88.4539 197.799 92.2678 202.323 96.5054 202.323ZM188.198 49.5549C188.198 38.192 187.383 29.249 185.753 22.7258C184.188 16.2027 181.971 12.9411 179.103 12.9411C178.973 12.9411 178.907 12.3098 178.907 11.0473C178.907 9.78474 178.973 9.15347 179.103 9.15347L183.797 9.46911C186.274 9.88994 188.263 10.1004 189.762 10.1004C191.002 10.1004 192.794 9.88994 195.141 9.46911L199.639 9.15347C199.769 9.15347 199.835 9.78474 199.835 11.0473C199.835 12.3098 199.769 12.9411 199.639 12.9411C197.097 12.9411 195.109 16.2027 193.674 22.7258C192.239 29.249 191.523 38.192 191.523 49.5549V137.302C191.523 152.032 190.513 164.973 188.491 176.125C186.469 187.277 183.601 195.905 179.885 202.007C176.235 207.899 171.996 210.845 167.172 210.845C162.348 210.845 158.078 207.899 154.362 202.007C150.646 196.115 147.712 187.593 145.56 176.441C143.474 165.078 142.431 151.821 142.431 136.671V34.72C142.431 28.4073 142.235 23.7779 141.844 20.832C141.518 17.886 140.866 15.887 139.888 14.8349C138.976 13.5724 137.509 12.9411 135.488 12.9411C135.292 12.9411 135.194 12.3098 135.194 11.0473C135.194 9.78474 135.292 9.15347 135.488 9.15347L140.671 9.46911C143.67 9.88994 146.049 10.1004 147.81 10.1004C149.765 10.1004 152.243 9.88994 155.242 9.46911L160.229 9.15347C160.425 9.15347 160.523 9.78474 160.523 11.0473C160.523 12.3098 160.425 12.9411 160.229 12.9411C158.208 12.9411 156.709 13.5724 155.731 14.8349C154.818 16.0975 154.166 18.3069 153.775 21.4633C153.449 24.4092 153.286 29.0386 153.286 35.3513V125.623C153.286 150.664 154.819 169.181 157.882 181.175C160.946 193.169 165.282 199.167 170.888 199.167C176.299 199.167 180.538 193.906 183.601 183.385C186.665 172.653 188.198 157.398 188.198 137.617V49.5549ZM270.355 202.639C270.485 202.639 270.551 203.27 270.551 204.532C270.551 205.795 270.485 206.426 270.355 206.426H252.948C251.513 206.426 248.841 197.799 244.929 180.544C241.018 163.079 236.291 138.775 230.749 107.632C230.228 107.843 229.478 107.948 228.5 107.948C225.958 107.948 224.165 107.843 223.122 107.632V180.86C223.122 187.383 223.285 192.118 223.611 195.063C223.936 198.009 224.556 200.008 225.469 201.06C226.447 202.112 227.979 202.639 230.065 202.639C230.195 202.639 230.26 203.27 230.26 204.532C230.26 205.795 230.195 206.426 230.065 206.426C227.913 206.426 226.219 206.321 224.98 206.111L217.547 205.795L210.409 206.111C209.105 206.321 207.345 206.426 205.128 206.426C204.932 206.426 204.835 205.795 204.835 204.532C204.835 203.27 204.932 202.639 205.128 202.639C207.214 202.639 208.714 202.112 209.626 201.06C210.604 200.008 211.257 198.009 211.582 195.063C211.973 191.907 212.169 187.172 212.169 180.86V34.72C212.169 28.4073 212.005 23.7779 211.68 20.832C211.354 17.886 210.702 15.887 209.724 14.8349C208.746 13.5724 207.247 12.9411 205.226 12.9411C205.096 12.9411 205.03 12.3098 205.03 11.0473C205.03 9.78474 205.096 9.15347 205.226 9.15347L210.409 9.46911C213.408 9.88994 215.787 10.1004 217.547 10.1004C219.438 10.1004 221.525 9.78474 223.806 9.15347C224.523 8.94303 225.437 8.73259 226.544 8.5222C227.718 8.31176 229.087 8.20656 230.652 8.20656C236.649 8.20656 241.279 11.7838 244.538 18.9382C247.863 25.8822 249.525 35.6669 249.525 48.2924C249.525 57.9721 248.613 67.2306 246.787 76.0684C244.961 84.9062 242.582 92.0608 239.648 97.5317C244.864 124.045 249.232 144.772 252.753 159.712C256.339 174.652 259.5 185.594 262.238 192.538C265.042 199.272 267.747 202.639 270.355 202.639ZM223.122 98.4786C224.686 99.3204 226.576 99.7411 228.794 99.7411C231.141 99.7411 232.999 98.5836 234.368 96.2691C235.737 93.9546 236.715 89.9564 237.301 84.2749C237.954 78.5935 238.279 70.5975 238.279 60.2866C238.279 43.0318 237.497 31.1428 235.932 24.6197C234.368 18.0965 232.118 14.8349 229.185 14.8349C226.968 14.8349 225.403 16.4131 224.491 19.5695C223.579 22.7258 223.122 27.9864 223.122 35.3513V98.4786ZM309.338 41.0327C309.338 48.608 309.924 55.3414 311.098 61.2335C312.335 67.1255 313.836 72.2807 315.596 76.6997C317.356 81.1186 319.736 86.4844 322.735 92.7971C325.994 99.5305 328.603 105.423 330.558 110.473C332.514 115.523 334.177 121.731 335.546 129.095C336.915 136.25 337.599 144.561 337.599 154.031C337.599 164.973 336.686 174.758 334.861 183.385C333.035 191.802 330.493 198.43 327.233 203.27C324.038 207.899 320.452 210.214 316.476 210.214C313.543 210.214 310.477 208.951 307.284 206.426C304.089 203.691 301.937 200.745 300.83 197.588C300.503 196.747 300.243 196.01 300.047 195.379C299.916 194.537 299.852 193.275 299.852 191.591L299.558 141.405V141.089C299.558 140.248 299.72 139.827 300.047 139.827C300.373 139.616 300.568 139.932 300.634 140.774C302.59 153.61 304.284 164.026 305.719 172.022C307.218 180.018 309.076 187.067 311.293 193.169C313.575 199.272 316.149 202.323 319.019 202.323C321.626 202.323 323.777 200.113 325.473 195.695C327.168 191.065 328.016 183.28 328.016 172.337C328.016 163.079 327.363 154.977 326.06 148.033C324.821 141.089 323.288 135.197 321.464 130.358C319.638 125.518 317.127 119.731 313.934 112.998C310.804 106.475 308.36 100.899 306.599 96.2691C304.903 91.6396 303.436 86.0637 302.199 79.5404C300.959 73.0171 300.341 65.3367 300.341 56.4989C300.341 45.3465 301.319 35.9826 303.274 28.4073C305.294 20.6216 307.871 14.9401 311 11.3629C314.129 7.57529 317.421 5.68147 320.877 5.68147C323.158 5.68147 325.473 6.41794 327.82 7.89092C330.167 9.15347 332.057 10.7317 333.492 12.6255C334.079 13.4672 334.47 14.4141 334.666 15.4662C334.861 16.3079 334.959 17.4652 334.959 18.9382V65.3367C334.959 65.968 334.796 66.4942 334.47 66.9149C334.143 67.1255 333.947 66.9149 333.883 66.2837L333.101 60.2866C331.471 47.0298 329.547 35.7721 327.331 26.5135C325.18 17.2548 322.148 12.6255 318.237 12.6255C315.628 12.6255 313.477 15.0454 311.782 19.8851C310.152 24.7248 309.338 31.774 309.338 41.0327ZM364.359 16.4131C356.602 16.4131 351.027 32.721 347.637 65.3367C347.571 65.968 347.376 66.2837 347.05 66.2837C346.725 66.0731 346.561 65.6524 346.561 65.0211C346.822 56.604 347.116 45.7673 347.441 32.5106C347.767 19.0434 347.93 8.94303 347.93 2.20946C347.93 1.15734 348.094 0.631283 348.419 0.631283C348.81 0.631283 349.006 1.15734 349.006 2.20946C349.006 6.83882 350.864 9.15347 354.58 9.15347C360.186 9.78474 366.738 10.1004 374.236 10.1004C378.082 10.1004 382.157 9.88994 386.46 9.46911L393.11 9.15347C395.587 9.15347 397.381 8.62739 398.489 7.57529C399.662 6.52313 400.412 4.41892 400.738 1.26255C400.804 0.420852 400.999 0 401.325 0C401.716 0 401.911 0.420852 401.911 1.26255C401.716 7.57529 401.488 17.6757 401.227 31.5637C401.031 45.4517 400.934 56.604 400.934 65.0211C400.934 65.6524 400.77 65.968 400.445 65.968C400.119 65.968 399.923 65.6524 399.858 65.0211C398.88 48.8186 397.054 36.719 394.381 28.7229C391.709 20.5164 388.416 16.4131 384.504 16.4131C382.614 16.4131 381.343 17.7808 380.691 20.5164C380.104 23.0415 379.81 27.9864 379.81 35.3513V180.86C379.81 187.383 380.006 192.118 380.397 195.063C380.788 198.009 381.539 200.008 382.646 201.06C383.754 202.112 385.514 202.639 387.927 202.639C388.123 202.639 388.221 203.27 388.221 204.532C388.221 205.795 388.123 206.426 387.927 206.426C385.58 206.426 383.722 206.321 382.353 206.111L374.236 205.795L366.315 206.111C364.946 206.321 363.056 206.426 360.643 206.426C360.448 206.426 360.35 205.795 360.35 204.532C360.35 203.27 360.448 202.639 360.643 202.639C362.99 202.639 364.718 202.112 365.826 201.06C367 200.008 367.782 198.009 368.173 195.063C368.63 191.907 368.858 187.172 368.858 180.86V34.72C368.858 27.5656 368.564 22.7258 367.978 20.2007C367.391 17.6756 366.185 16.4131 364.359 16.4131ZM466.608 9.15347C466.738 9.15347 466.804 9.78474 466.804 11.0473C466.804 12.3098 466.738 12.9411 466.608 12.9411C464.587 12.9411 462.11 17.0444 459.176 25.2509C456.242 33.247 453.634 43.3474 451.353 55.552L441.183 110.473V180.86C441.183 187.383 441.346 192.118 441.671 195.063C441.997 198.009 442.617 200.008 443.53 201.06C444.507 202.112 446.04 202.639 448.126 202.639C448.321 202.639 448.419 203.27 448.419 204.532C448.419 205.795 448.321 206.426 448.126 206.426C445.974 206.426 444.28 206.321 443.041 206.111L435.706 205.795L428.47 206.111C427.166 206.321 425.406 206.426 423.189 206.426C423.059 206.426 422.993 205.795 422.993 204.532C422.993 203.27 423.059 202.639 423.189 202.639C425.275 202.639 426.807 202.112 427.785 201.06C428.763 200.008 429.415 198.009 429.741 195.063C430.132 191.907 430.328 187.172 430.328 180.86V117.101L416.05 45.4517C413.637 33.247 411.617 24.8301 409.987 20.2007C408.422 15.361 407.085 12.9411 405.977 12.9411C405.782 12.9411 405.684 12.3098 405.684 11.0473C405.684 9.78474 405.782 9.15347 405.977 9.15347L409.009 9.46911C410.444 9.88994 411.454 10.1004 412.041 10.1004C414.322 10.1004 417.615 9.88994 421.918 9.46911L428.372 9.15347C428.502 9.15347 428.567 9.78474 428.567 11.0473C428.567 12.3098 428.502 12.9411 428.372 12.9411C427.264 12.9411 426.384 13.7828 425.731 15.4662C425.145 17.1496 424.851 19.359 424.851 22.0946C424.851 25.4613 425.308 29.4594 426.22 34.0887L439.618 102.266L448.615 52.7113C450.375 43.2422 451.255 35.1408 451.255 28.4073C451.255 23.3571 450.766 19.5695 449.788 17.0444C448.876 14.3088 447.539 12.9411 445.779 12.9411C445.583 12.9411 445.485 12.3098 445.485 11.0473C445.485 9.78474 445.583 9.15347 445.779 9.15347L450.962 9.46911C453.961 9.88994 456.634 10.1004 458.981 10.1004C460.088 10.1004 461.425 9.88994 462.99 9.46911L466.608 9.15347ZM486.865 179.597C486.865 185.068 486.995 189.066 487.256 191.591C487.518 193.906 488.007 195.484 488.723 196.326C489.506 197.168 490.745 197.588 492.439 197.588H495.764C500.849 197.588 505.25 193.275 508.966 184.647C512.682 175.809 515.159 163.92 516.398 148.98C516.398 148.56 516.528 148.349 516.79 148.349C516.919 148.349 517.051 148.56 517.181 148.98C517.376 149.191 517.474 149.401 517.474 149.612C516.887 170.444 516.594 187.804 516.594 201.692C516.594 203.375 516.464 204.637 516.203 205.479C516.007 206.111 515.648 206.426 515.127 206.426H468.969C468.839 206.426 468.774 205.795 468.774 204.532C468.774 203.27 468.839 202.639 468.969 202.639C471.055 202.639 472.555 202.112 473.468 201.06C474.446 200.008 475.098 198.009 475.424 195.063C475.815 191.907 476.01 187.172 476.01 180.86V34.72C476.01 28.4073 475.815 23.7779 475.424 20.832C475.098 17.886 474.446 15.887 473.468 14.8349C472.49 13.5724 470.991 12.9411 468.969 12.9411C468.839 12.9411 468.774 12.3098 468.774 11.0473C468.774 9.78474 468.839 9.15347 468.969 9.15347L473.957 9.46911C476.956 9.88994 479.433 10.1004 481.389 10.1004C483.345 10.1004 485.822 9.88994 488.821 9.46911L493.808 9.15347C494.004 9.15347 494.102 9.78474 494.102 11.0473C494.102 12.3098 494.004 12.9411 493.808 12.9411C491.787 12.9411 490.288 13.5724 489.31 14.8349C488.332 15.887 487.68 17.9913 487.354 21.1477C487.029 24.0936 486.865 28.7229 486.865 35.0357V179.597ZM541.523 180.86C541.523 187.383 541.687 192.118 542.012 195.063C542.338 198.009 542.958 200.008 543.87 201.06C544.848 202.112 546.381 202.639 548.466 202.639C548.662 202.639 548.76 203.27 548.76 204.532C548.76 205.795 548.662 206.426 548.466 206.426C546.315 206.426 544.62 206.321 543.381 206.111L535.949 205.795L528.713 206.111C527.409 206.321 525.649 206.426 523.432 206.426C523.302 206.426 523.236 205.795 523.236 204.532C523.236 203.27 523.302 202.639 523.432 202.639C525.517 202.639 527.05 202.112 528.028 201.06C529.006 200.008 529.658 198.009 529.984 195.063C530.375 191.907 530.571 187.172 530.571 180.86V34.72C530.571 28.4073 530.375 23.7779 529.984 20.832C529.658 17.886 529.006 15.887 528.028 14.8349C527.05 13.5724 525.517 12.9411 523.432 12.9411C523.302 12.9411 523.236 12.3098 523.236 11.0473C523.236 9.78474 523.302 9.15347 523.432 9.15347L528.713 9.46911C531.712 9.88994 534.123 10.1004 535.949 10.1004C537.971 10.1004 540.48 9.88994 543.479 9.46911L548.466 9.15347C548.662 9.15347 548.76 9.78474 548.76 11.0473C548.76 12.3098 548.662 12.9411 548.466 12.9411C546.445 12.9411 544.946 13.5724 543.968 14.8349C542.99 16.0975 542.338 18.3069 542.012 21.4633C541.687 24.4092 541.523 29.0386 541.523 35.3513V180.86ZM569.765 41.0327C569.765 48.608 570.352 55.3414 571.526 61.2335C572.765 67.1255 574.264 72.2807 576.024 76.6997C577.784 81.1186 580.163 86.4844 583.163 92.7971C586.422 99.5305 589.03 105.423 590.986 110.473C592.942 115.523 594.604 121.731 595.974 129.095C597.343 136.25 598.027 144.561 598.027 154.031C598.027 164.973 597.115 174.758 595.289 183.385C593.463 191.802 590.92 198.43 587.661 203.27C584.466 207.899 580.882 210.214 576.904 210.214C573.97 210.214 570.907 208.951 567.712 206.426C564.517 203.691 562.365 200.745 561.257 197.588C560.932 196.747 560.671 196.01 560.475 195.379C560.345 194.537 560.279 193.275 560.279 191.591L559.986 141.405V141.089C559.986 140.248 560.15 139.827 560.475 139.827C560.8 139.616 560.996 139.932 561.062 140.774C563.018 153.61 564.712 164.026 566.147 172.022C567.646 180.018 569.504 187.067 571.721 193.169C574.002 199.272 576.579 202.323 579.447 202.323C582.055 202.323 584.206 200.113 585.901 195.695C587.596 191.065 588.444 183.28 588.444 172.337C588.444 163.079 587.791 154.977 586.488 148.033C585.248 141.089 583.717 135.197 581.891 130.358C580.065 125.518 577.557 119.731 574.362 112.998C571.232 106.475 568.787 100.899 567.027 96.2691C565.333 91.6396 563.866 86.0637 562.626 79.5404C561.387 73.0171 560.768 65.3367 560.768 56.4989C560.768 45.3465 561.746 35.9826 563.702 28.4073C565.724 20.6216 568.298 14.9401 571.428 11.3629C574.557 7.57529 577.85 5.68147 581.305 5.68147C583.586 5.68147 585.901 6.41794 588.248 7.89092C590.595 9.15347 592.485 10.7317 593.92 12.6255C594.507 13.4672 594.898 14.4141 595.093 15.4662C595.289 16.3079 595.387 17.4652 595.387 18.9382V65.3367C595.387 65.968 595.223 66.4942 594.898 66.9149C594.572 67.1255 594.377 66.9149 594.311 66.2837L593.529 60.2866C591.898 47.0298 589.976 35.7721 587.759 26.5135C585.608 17.2548 582.576 12.6255 578.664 12.6255C576.056 12.6255 573.905 15.0454 572.21 19.8851C570.58 24.7248 569.765 31.774 569.765 41.0327ZM674.662 202.639C674.858 202.639 674.956 203.27 674.956 204.532C674.956 205.795 674.858 206.426 674.662 206.426C672.38 206.426 670.555 206.321 669.186 206.111L661.656 205.795L652.855 206.111C651.681 206.321 650.083 206.426 648.063 206.426C647.867 206.426 647.77 205.795 647.77 204.532C647.77 203.27 647.867 202.639 648.063 202.639C650.474 202.639 652.234 202.112 653.342 201.06C654.452 200.008 655.202 198.009 655.593 195.063C655.984 192.118 656.18 187.383 656.18 180.86V108.263H624.593V180.86C624.593 187.172 624.789 191.907 625.18 195.063C625.571 198.009 626.32 200.008 627.429 201.06C628.537 202.112 630.297 202.639 632.71 202.639C632.84 202.639 632.905 203.27 632.905 204.532C632.905 205.795 632.84 206.426 632.71 206.426C630.427 206.426 628.602 206.321 627.233 206.111L618.725 205.795L611.391 206.111C610.086 206.321 608.294 206.426 606.013 206.426C605.881 206.426 605.817 205.795 605.817 204.532C605.817 203.27 605.881 202.639 606.013 202.639C608.294 202.639 609.956 202.112 611 201.06C612.042 200.008 612.76 198.009 613.151 195.063C613.542 191.907 613.738 187.172 613.738 180.86V34.72C613.738 28.4073 613.542 23.7779 613.151 20.832C612.76 17.886 612.042 15.887 611 14.8349C610.02 13.5724 608.424 12.9411 606.208 12.9411C606.013 12.9411 605.915 12.3098 605.915 11.0473C605.915 9.78474 606.013 9.15347 606.208 9.15347L611.489 9.46911C614.487 9.88994 616.9 10.1004 618.725 10.1004C621.202 10.1004 624.07 9.88994 627.331 9.46911L632.71 9.15347C632.84 9.15347 632.905 9.78474 632.905 11.0473C632.905 12.3098 632.84 12.9411 632.71 12.9411C630.363 12.9411 628.635 13.5724 627.525 14.8349C626.417 16.0975 625.635 18.3069 625.18 21.4633C624.789 24.4092 624.593 29.0386 624.593 35.3513V99.4255H656.18V35.3513C656.18 29.0386 655.984 24.4092 655.593 21.4633C655.202 18.3069 654.452 16.0975 653.342 14.8349C652.234 13.5724 650.474 12.9411 648.063 12.9411C647.867 12.9411 647.77 12.3098 647.77 11.0473C647.77 9.78474 647.867 9.15347 648.063 9.15347L652.855 9.46911C656.114 9.88994 659.048 10.1004 661.656 10.1004C663.416 10.1004 665.925 9.88994 669.186 9.46911L674.662 9.15347C674.858 9.15347 674.956 9.78474 674.956 11.0473C674.956 12.3098 674.858 12.9411 674.662 12.9411C672.445 12.9411 670.783 13.5724 669.675 14.8349C668.631 15.887 667.915 17.886 667.524 20.832C667.197 23.7779 667.035 28.4073 667.035 34.72V180.86C667.035 187.172 667.197 191.907 667.524 195.063C667.915 198.009 668.631 200.008 669.675 201.06C670.717 202.112 672.38 202.639 674.662 202.639ZM736.472 210.214C730.409 210.214 724.996 205.69 720.238 196.641C715.544 187.383 711.892 174.968 709.285 159.396C706.743 143.615 705.472 126.465 705.472 107.948C705.472 86.2738 707.166 67.7568 710.557 52.3957C713.946 36.8242 718.282 25.1457 723.563 17.36C728.908 9.5743 734.352 5.68147 739.894 5.68147C746.087 5.68147 751.532 10.416 756.226 19.8851C760.92 29.1438 764.504 41.4536 766.983 56.8146C769.525 72.1757 770.797 88.4832 770.797 105.738C770.797 124.887 769.232 142.457 766.103 158.449C762.973 174.442 758.768 187.067 753.487 196.326C748.271 205.584 742.599 210.214 736.472 210.214ZM739.699 202.323C743.349 202.323 746.608 198.956 749.478 192.223C752.412 185.279 754.693 175.283 756.323 162.237C757.952 148.98 758.768 133.199 758.768 114.892C758.768 95.5328 757.854 78.2778 756.03 63.1273C754.204 47.7663 751.564 35.7721 748.109 27.1447C744.653 18.5174 740.611 14.2037 735.983 14.2037C730.049 14.2037 725.485 21.4633 722.292 35.9826C719.097 50.2912 717.5 70.3869 717.5 96.2691C717.5 116.68 718.444 134.987 720.336 151.19C722.292 167.182 724.932 179.702 728.257 188.751C731.646 197.799 735.46 202.323 739.699 202.323ZM846.255 9.15347C846.385 9.15347 846.451 9.78474 846.451 11.0473C846.451 12.3098 846.385 12.9411 846.255 12.9411C843.647 12.9411 841.593 16.3079 840.094 23.0415C838.594 29.5646 837.845 38.4025 837.845 49.5549V211.161C837.845 211.792 837.682 212.213 837.356 212.423C837.095 212.634 836.899 212.528 836.77 212.108L790.905 43.5578V166.34C790.905 177.493 791.622 186.331 793.057 192.854C794.49 199.377 796.479 202.639 799.022 202.639C799.152 202.639 799.217 203.27 799.217 204.532C799.217 205.795 799.152 206.426 799.022 206.426C797.196 206.426 795.795 206.321 794.817 206.111L789.536 205.795L783.473 206.111C782.364 206.321 780.767 206.426 778.681 206.426C778.485 206.426 778.388 205.795 778.388 204.532C778.388 203.27 778.485 202.639 778.681 202.639C781.549 202.639 783.798 199.377 785.429 192.854C787.123 186.331 787.971 177.493 787.971 166.34V32.8262C785.82 25.2509 783.962 20.0955 782.397 17.36C780.897 14.414 779.332 12.9411 777.703 12.9411C777.572 12.9411 777.508 12.3098 777.508 11.0473C777.508 9.78474 777.572 9.15347 777.703 9.15347L781.81 9.46911C782.657 9.67955 783.896 9.78474 785.527 9.78474L792.959 9.46911C793.871 9.25867 794.979 9.15347 796.284 9.15347C796.805 9.15347 797.196 9.5743 797.457 10.416C797.717 11.2577 798.174 13.0463 798.826 15.7818C799.934 20.6216 800.716 23.8832 801.173 25.5666L835.009 151.505V49.5549C835.009 38.192 834.291 29.249 832.858 22.7258C831.423 16.2027 829.435 12.9411 826.893 12.9411C826.761 12.9411 826.697 12.3098 826.697 11.0473C826.697 9.78474 826.761 9.15347 826.893 9.15347L831.098 9.46911C833.183 9.88994 834.944 10.1004 836.378 10.1004C837.682 10.1004 839.508 9.88994 841.855 9.46911L846.255 9.15347ZM869.172 16.4131C861.415 16.4131 855.84 32.721 852.45 65.3367C852.384 65.968 852.189 66.2837 851.863 66.2837C851.538 66.0731 851.374 65.6524 851.374 65.0211C851.635 56.604 851.929 45.7673 852.254 32.5106C852.58 19.0434 852.743 8.94303 852.743 2.20946C852.743 1.15734 852.907 0.631283 853.232 0.631283C853.623 0.631283 853.819 1.15734 853.819 2.20946C853.819 6.83882 855.677 9.15347 859.393 9.15347C864.999 9.78474 871.551 10.1004 879.049 10.1004C882.895 10.1004 886.97 9.88994 891.273 9.46911L897.923 9.15347C900.4 9.15347 902.194 8.62739 903.302 7.57529C904.475 6.52313 905.225 4.41892 905.551 1.26255C905.617 0.420852 905.812 0 906.138 0C906.529 0 906.724 0.420852 906.724 1.26255C906.529 7.57529 906.301 17.6757 906.04 31.5637C905.844 45.4517 905.747 56.604 905.747 65.0211C905.747 65.6524 905.583 65.968 905.258 65.968C904.932 65.968 904.737 65.6524 904.671 65.0211C903.693 48.8186 901.867 36.719 899.195 28.7229C896.522 20.5164 893.229 16.4131 889.318 16.4131C887.427 16.4131 886.156 17.7808 885.504 20.5164C884.917 23.0415 884.623 27.9864 884.623 35.3513V180.86C884.623 187.383 884.819 192.118 885.21 195.063C885.601 198.009 886.352 200.008 887.459 201.06C888.567 202.112 890.328 202.639 892.74 202.639C892.936 202.639 893.034 203.27 893.034 204.532C893.034 205.795 892.936 206.426 892.74 206.426C890.393 206.426 888.535 206.321 887.166 206.111L879.049 205.795L871.128 206.111C869.759 206.321 867.869 206.426 865.456 206.426C865.261 206.426 865.163 205.795 865.163 204.532C865.163 203.27 865.261 202.639 865.456 202.639C867.803 202.639 869.531 202.112 870.639 201.06C871.813 200.008 872.595 198.009 872.986 195.063C873.443 191.907 873.671 187.172 873.671 180.86V34.72C873.671 27.5656 873.377 22.7258 872.791 20.2007C872.204 17.6756 870.998 16.4131 869.172 16.4131ZM973.542 202.639C973.868 202.639 974.031 203.27 974.031 204.532C974.031 205.795 973.868 206.426 973.542 206.426C972.239 206.426 970.217 206.216 967.479 205.795C964.611 205.374 962.558 205.164 961.318 205.164C959.688 205.164 957.7 205.374 955.353 205.795C953.136 206.216 951.376 206.426 950.072 206.426C949.811 206.426 949.681 205.795 949.681 204.532C949.681 203.27 949.811 202.639 950.072 202.639C951.767 202.639 952.974 202.112 953.691 201.06C954.473 199.798 954.864 197.693 954.864 194.748C954.864 191.171 954.212 185.174 952.908 176.756L942.738 112.051H925.331L918.388 161.606C917.54 167.708 917.116 173.389 917.116 178.65C917.116 186.225 917.931 192.118 919.561 196.326C921.256 200.534 923.505 202.639 926.309 202.639C926.634 202.639 926.798 203.27 926.798 204.532C926.798 205.795 926.634 206.426 926.309 206.426C925.135 206.426 923.441 206.216 921.224 205.795C918.747 205.374 916.595 205.164 914.769 205.164C913.009 205.164 910.89 205.374 908.413 205.795C906.196 206.216 904.403 206.426 903.034 206.426C902.773 206.426 902.643 205.795 902.643 204.532C902.643 203.27 902.773 202.639 903.034 202.639C904.86 202.639 906.391 201.481 907.631 199.167C908.87 196.641 910.107 192.328 911.347 186.225C912.586 179.913 914.053 170.654 915.747 158.449L936.968 7.89092C937.098 7.25965 937.391 6.94402 937.848 6.94402C938.369 6.94402 938.663 7.25965 938.728 7.89092L963.176 163.184C965.458 178.124 967.349 188.435 968.848 194.116C970.347 199.798 971.912 202.639 973.542 202.639ZM926.602 103.213H941.369L933.545 53.3426L926.602 103.213ZM1042.66 202.639C1042.79 202.639 1042.86 203.27 1042.86 204.532C1042.86 205.795 1042.79 206.426 1042.66 206.426H1025.26C1023.82 206.426 1021.15 197.799 1017.24 180.544C1013.33 163.079 1008.6 138.775 1003.06 107.632C1002.54 107.843 1001.79 107.948 1000.81 107.948C998.267 107.948 996.473 107.843 995.431 107.632V180.86C995.431 187.383 995.593 192.118 995.92 195.063C996.245 198.009 996.864 200.008 997.778 201.06C998.756 202.112 1000.29 202.639 1002.37 202.639C1002.5 202.639 1002.57 203.27 1002.57 204.532C1002.57 205.795 1002.5 206.426 1002.37 206.426C1000.22 206.426 998.527 206.321 997.289 206.111L989.857 205.795L982.718 206.111C981.413 206.321 979.653 206.426 977.437 206.426C977.242 206.426 977.144 205.795 977.144 204.532C977.144 203.27 977.242 202.639 977.437 202.639C979.523 202.639 981.022 202.112 981.936 201.06C982.914 200.008 983.565 198.009 983.892 195.063C984.283 191.907 984.478 187.172 984.478 180.86V34.72C984.478 28.4073 984.315 23.7779 983.989 20.832C983.662 17.886 983.011 15.887 982.033 14.8349C981.056 13.5724 979.555 12.9411 977.535 12.9411C977.404 12.9411 977.339 12.3098 977.339 11.0473C977.339 9.78474 977.404 9.15347 977.535 9.15347L982.718 9.46911C985.716 9.88994 988.097 10.1004 989.857 10.1004C991.747 10.1004 993.833 9.78474 996.116 9.15347C996.832 8.94303 997.744 8.73259 998.854 8.5222C1000.03 8.31176 1001.4 8.20656 1002.96 8.20656C1008.96 8.20656 1013.59 11.7838 1016.85 18.9382C1020.17 25.8822 1021.83 35.6669 1021.83 48.2924C1021.83 57.9721 1020.92 67.2306 1019.1 76.0684C1017.27 84.9062 1014.89 92.0608 1011.96 97.5317C1017.17 124.045 1021.54 144.772 1025.06 159.712C1028.65 174.652 1031.81 185.594 1034.55 192.538C1037.35 199.272 1040.06 202.639 1042.66 202.639ZM995.431 98.4786C996.996 99.3204 998.886 99.7411 1001.1 99.7411C1003.45 99.7411 1005.31 98.5836 1006.68 96.2691C1008.05 93.9546 1009.02 89.9564 1009.61 84.2749C1010.26 78.5935 1010.59 70.5975 1010.59 60.2866C1010.59 43.0318 1009.81 31.1428 1008.24 24.6197C1006.68 18.0965 1004.43 14.8349 1001.49 14.8349C999.277 14.8349 997.712 16.4131 996.8 19.5695C995.886 22.7258 995.431 27.9864 995.431 35.3513V98.4786ZM1063.91 180.86C1063.91 187.383 1064.07 192.118 1064.4 195.063C1064.72 198.009 1065.34 200.008 1066.26 201.06C1067.23 202.112 1068.77 202.639 1070.85 202.639C1071.05 202.639 1071.14 203.27 1071.14 204.532C1071.14 205.795 1071.05 206.426 1070.85 206.426C1068.7 206.426 1067.01 206.321 1065.77 206.111L1058.33 205.795L1051.1 206.111C1049.79 206.321 1048.03 206.426 1045.82 206.426C1045.69 206.426 1045.62 205.795 1045.62 204.532C1045.62 203.27 1045.69 202.639 1045.82 202.639C1047.9 202.639 1049.44 202.112 1050.41 201.06C1051.39 200.008 1052.04 198.009 1052.37 195.063C1052.76 191.907 1052.96 187.172 1052.96 180.86V34.72C1052.96 28.4073 1052.76 23.7779 1052.37 20.832C1052.04 17.886 1051.39 15.887 1050.41 14.8349C1049.44 13.5724 1047.9 12.9411 1045.82 12.9411C1045.69 12.9411 1045.62 12.3098 1045.62 11.0473C1045.62 9.78474 1045.69 9.15347 1045.82 9.15347L1051.1 9.46911C1054.1 9.88994 1056.51 10.1004 1058.33 10.1004C1060.36 10.1004 1062.86 9.88994 1065.86 9.46911L1070.85 9.15347C1071.05 9.15347 1071.14 9.78474 1071.14 11.0473C1071.14 12.3098 1071.05 12.9411 1070.85 12.9411C1068.83 12.9411 1067.33 13.5724 1066.35 14.8349C1065.38 16.0975 1064.72 18.3069 1064.4 21.4633C1064.07 24.4092 1063.91 29.0386 1063.91 35.3513V180.86ZM1110.93 210.214C1104.86 210.214 1099.45 205.69 1094.69 196.641C1090 187.383 1086.35 174.968 1083.74 159.396C1081.2 143.615 1079.93 126.465 1079.93 107.948C1079.93 86.2738 1081.62 67.7568 1085.01 52.3957C1088.4 36.8242 1092.74 25.1457 1098.02 17.36C1103.36 9.5743 1108.81 5.68147 1114.35 5.68147C1120.54 5.68147 1125.99 10.416 1130.68 19.8851C1135.37 29.1438 1138.96 41.4536 1141.44 56.8146C1143.98 72.1757 1145.25 88.4832 1145.25 105.738C1145.25 124.887 1143.69 142.457 1140.56 158.449C1137.43 174.442 1133.22 187.067 1127.94 196.326C1122.73 205.584 1117.06 210.214 1110.93 210.214ZM1114.15 202.323C1117.8 202.323 1121.06 198.956 1123.93 192.223C1126.87 185.279 1129.15 175.283 1130.78 162.237C1132.41 148.98 1133.22 133.199 1133.22 114.892C1133.22 95.5328 1132.31 78.2778 1130.48 63.1273C1128.66 47.7663 1126.02 35.7721 1122.56 27.1447C1119.11 18.5174 1115.07 14.2037 1110.44 14.2037C1104.5 14.2037 1099.94 21.4633 1096.75 35.9826C1093.55 50.2912 1091.95 70.3869 1091.95 96.2691C1091.95 116.68 1092.9 134.987 1094.79 151.19C1096.75 167.182 1099.39 179.702 1102.71 188.751C1106.1 197.799 1109.92 202.323 1114.15 202.323Z" fill="#FF0000"/>
</svg>
