<svg width="41" height="509" viewBox="0 0 41 509" fill="none" xmlns="http://www.w3.org/2000/svg">
<g clip-path="url(#clip0_23_156)">
<path d="M39.1368 27.1176C39.1368 27.1758 39.0175 27.2049 38.7789 27.2049C38.5404 27.2049 38.4211 27.1758 38.4211 27.1176C38.4211 26.1569 37.7254 25.0652 36.3338 23.8425C34.9821 22.6198 33.2328 21.5281 31.0858 20.5674L20.0531 15.5893L6.69457 15.5893C5.46205 15.5893 4.56751 15.6621 4.01094 15.8077C3.45436 15.9823 3.0766 16.288 2.87785 16.7247C2.67909 17.1905 2.57966 17.9182 2.57966 18.9081C2.57966 18.9954 2.46039 19.0391 2.22184 19.0391C1.9833 19.0391 1.86402 18.9954 1.86402 18.9081C1.86402 17.9474 1.88387 17.205 1.92366 16.681L1.9833 13.4933L1.92366 10.3492C1.88387 9.767 1.86402 8.99552 1.86402 8.03483C1.86402 7.97663 1.9833 7.94749 2.22184 7.94749C2.46039 7.94749 2.57966 7.97663 2.57966 8.03483C2.57966 9.02465 2.67909 9.73786 2.87785 10.1745C3.0766 10.6403 3.45436 10.9606 4.01094 11.1352C4.6073 11.3099 5.50184 11.3972 6.69457 11.3972L18.9797 11.3972L32.8153 4.75976C34.9225 3.76996 36.3736 2.91117 37.1688 2.18338C38.0037 1.4847 38.4211 0.80057 38.4211 0.131003C38.4211 0.0436675 38.5404 -1.01665e-07 38.7789 -9.12377e-08C39.0175 -8.08106e-08 39.1368 0.0436675 39.1368 0.131003L39.0771 1.57203C38.9976 2.21249 38.9578 2.67827 38.9578 2.96939C38.9578 3.95919 38.9976 5.35656 39.0771 7.16148L39.1368 9.86887C39.1368 9.92707 39.0175 9.9562 38.7789 9.9562C38.5404 9.9562 38.4211 9.92707 38.4211 9.86887C38.4211 8.67531 37.8645 8.0785 36.7513 8.0785C36.1947 8.0785 35.5586 8.25317 34.8429 8.60251L21.544 14.9343L31.5033 19.3884C33.1334 20.1162 34.5646 20.4801 35.7971 20.4801C37.5464 20.4801 38.4211 19.6795 38.4211 18.0784C38.4211 18.0202 38.5404 17.991 38.7789 17.991C39.0175 17.991 39.1368 18.0202 39.1368 18.0784L39.0771 20.3491C38.9976 21.5718 38.9578 22.6926 38.9578 23.7115C38.9578 24.2064 38.9976 24.8032 39.0771 25.5019L39.1368 27.1176ZM1.14839 41.6114C1.14839 38.904 2.00315 36.4878 3.71275 34.3626C5.46205 32.2666 7.80781 30.6363 10.7498 29.4719C13.7317 28.3365 16.9719 27.7688 20.4706 27.7688C24.5656 27.7688 28.0642 28.5257 30.9666 30.0395C33.9086 31.5534 36.1152 33.4893 37.5862 35.8473C39.0572 38.2345 39.7928 40.6653 39.7928 43.1398C39.7928 45.9054 38.8982 48.3362 37.1091 50.4323C35.3598 52.5283 33.034 54.1295 30.1317 55.2357C27.2293 56.3711 24.1482 56.9387 20.888 56.9387C17.2701 56.9387 13.9504 56.2401 10.9288 54.8427C7.90714 53.4453 5.52169 51.5676 3.77239 49.2096C2.02308 46.8807 1.14839 44.348 1.14839 41.6114ZM2.57966 43.0961C2.57966 44.8428 3.21581 46.4003 4.48803 47.7686C5.80003 49.1659 7.70839 50.2576 10.2131 51.0436C12.7178 51.8588 15.6997 52.2663 19.1586 52.2663C22.8162 52.2663 26.0962 51.8151 28.9986 50.9126C31.9009 50.0393 34.1671 48.7729 35.7971 47.1135C37.4272 45.4833 38.2422 43.5619 38.2422 41.3494C38.2422 38.5256 36.8507 36.3277 34.0677 34.7556C31.3244 33.2127 27.5077 32.4412 22.6175 32.4412C18.8405 32.4412 15.4213 32.8925 12.36 33.7949C9.29872 34.7265 6.89333 35.9928 5.14403 37.594C3.43442 39.2242 2.57966 41.0583 2.57966 43.0961ZM31.8611 83.9966C33.9285 83.9966 35.5387 83.6473 36.6917 82.9486C37.8446 82.2786 38.4211 81.3035 38.4211 80.0228C38.4211 79.9642 38.5404 79.9355 38.7789 79.9355C39.0175 79.9355 39.1368 79.9642 39.1368 80.0228L39.0771 82.0316C38.9976 83.1376 38.9578 84.0109 38.9578 84.6516C38.9578 85.1756 38.9976 85.9616 39.0771 87.0097L39.1367 88.931C39.1367 88.989 39.0175 89.0184 38.7789 89.0184C38.5404 89.0184 38.4211 88.989 38.4211 88.931C38.4211 87.7957 37.8446 86.9073 36.6917 86.2673C35.5387 85.656 33.9285 85.3503 31.8611 85.3503L15.1629 85.3503C12.3004 85.3503 9.79566 84.8986 7.64875 83.9966C5.54163 83.1233 3.91151 81.8712 2.75857 80.2412C1.60563 78.6398 1.02911 76.7764 1.02911 74.6517C1.02911 72.5264 1.58569 70.6343 2.69893 68.975C3.85187 67.3153 5.482 66.0198 7.58912 65.0882C9.73602 64.1857 12.2408 63.7345 15.1033 63.7345L34.3062 63.7345C35.4989 63.7345 36.3736 63.6472 36.9302 63.4725C37.4868 63.2978 37.8645 62.9776 38.0633 62.5118C38.3018 62.0751 38.4211 61.3765 38.4211 60.4158C38.4211 60.3284 38.5404 60.2848 38.7789 60.2848C39.0175 60.2848 39.1368 60.3284 39.1368 60.4158L39.0771 62.6865C38.9976 63.9674 38.9578 65.0009 38.9578 65.7869C38.9578 66.6602 38.9976 67.7374 39.0771 69.0186L39.1368 71.202C39.1368 71.2893 39.0175 71.333 38.7789 71.333C38.5404 71.333 38.4211 71.2893 38.4211 71.202C38.4211 70.2413 38.3018 69.5276 38.0633 69.0623C37.8248 68.6256 37.4073 68.3199 36.8109 68.1449C36.2543 67.9703 35.3797 67.8829 34.1869 67.8829L17.1906 67.8829C12.4594 67.8829 8.92096 68.5963 6.5753 70.023C4.26933 71.4783 3.11639 73.5014 3.11639 76.0928C3.11639 78.5668 4.15005 80.5032 6.21748 81.9006C8.3246 83.2979 11.2866 83.9966 15.1033 83.9966L31.8611 83.9966ZM2.57966 120.205C2.57966 120.292 2.46038 120.336 2.22184 120.336C1.98329 120.336 1.86402 120.292 1.86402 120.205L1.86402 113.174C1.86402 112.504 3.51399 111.253 6.81384 109.419C10.1535 107.613 14.8051 105.401 20.7687 102.781C20.6495 102.315 20.5898 101.835 20.5898 101.34C20.5898 100.263 20.6097 99.5061 20.6495 99.0694L6.69456 99.0694C5.46205 99.0694 4.56751 99.1417 4.01093 99.2878C3.45436 99.4624 3.0766 99.7681 2.87784 100.205C2.67908 100.67 2.57966 101.398 2.57966 102.388C2.57966 102.446 2.46038 102.475 2.22184 102.475C1.98329 102.475 1.86402 102.446 1.86402 102.388C1.86402 101.427 1.88387 100.685 1.92366 100.161L1.9833 96.9297L1.92366 93.7856C1.88387 93.2323 1.86402 92.4756 1.86402 91.5149C1.86402 91.4276 1.9833 91.3839 2.22184 91.3839C2.46038 91.3839 2.57966 91.4276 2.57966 91.5149C2.57966 92.5043 2.67908 93.218 2.87784 93.6546C3.0766 94.12 3.45436 94.4406 4.01093 94.6153C4.6073 94.79 5.50184 94.8773 6.69456 94.8773L34.3062 94.8773C35.4989 94.8773 36.3736 94.79 36.9302 94.6153C37.4868 94.4693 37.8645 94.1636 38.0633 93.6983C38.3018 93.2323 38.4211 92.5193 38.4211 91.5586C38.4211 91.4999 38.5404 91.4713 38.7789 91.4713C39.0175 91.4713 39.1367 91.4999 39.1367 91.5586L39.0771 93.8293C38.9976 95.11 38.9578 96.1437 38.9578 96.9297C38.9578 97.8031 39.0175 98.7201 39.1367 99.6808C39.1765 100.03 39.2163 100.452 39.256 100.947C39.2958 101.442 39.3157 101.98 39.3157 102.563C39.3157 105.154 38.6597 107.148 37.3477 108.545C36.0357 109.943 34.1869 110.641 31.8015 110.641C29.9329 110.641 28.1637 110.233 26.4938 109.419C24.824 108.603 23.4722 107.541 22.4386 106.231C17.4291 108.618 13.4931 110.612 10.6306 112.213C7.80781 113.843 5.76023 115.284 4.48802 116.536C3.21581 117.788 2.57966 119.01 2.57966 120.205ZM22.3193 99.0694C22.1602 99.7681 22.0807 100.612 22.0807 101.602C22.0807 103.349 22.6175 104.572 23.6909 105.27C24.7644 105.969 26.7324 106.318 29.5949 106.318C32.8153 106.318 35.0417 105.925 36.2742 105.139C37.5464 104.353 38.1826 103.246 38.1826 101.82C38.1826 100.772 37.9043 100.044 37.3477 99.6371C36.7911 99.2584 35.7375 99.0694 34.1869 99.0694L22.3193 99.0694ZM32.8153 137.226C31.3442 137.226 30.0322 137.488 28.8793 138.012C27.7661 138.565 26.792 139.235 25.9571 140.021C25.1222 140.836 24.1282 141.928 22.9753 143.296C21.7031 144.78 20.6097 145.945 19.6953 146.789C18.7809 147.663 17.6478 148.391 16.296 148.973C14.984 149.584 13.4335 149.89 11.6444 149.89C9.61675 149.89 7.80781 149.497 6.21748 148.711C4.62714 147.954 3.37478 146.862 2.46038 145.435C1.58569 144.038 1.14838 142.437 1.14838 140.632C1.14838 139.409 1.36708 138.143 1.80438 136.833C2.24169 135.552 2.77841 134.577 3.41457 133.907C3.65311 133.645 4.03078 133.5 4.54766 133.471L13.6124 133.209L13.672 133.209C13.8311 133.209 13.9106 133.282 13.9106 133.427C13.9504 133.572 13.8907 133.66 13.7317 133.689C10.4318 134.65 7.72824 135.741 5.62111 136.964C3.51399 138.216 2.46038 139.802 2.46038 141.724C2.46038 142.976 2.91763 144.024 3.83202 144.868C4.7862 145.712 6.3566 146.134 8.54329 146.134C10.2926 146.134 11.8233 145.843 13.1353 145.261C14.4473 144.707 15.5406 144.009 16.4153 143.165C17.29 142.349 18.3634 141.229 19.6357 139.802C20.8682 138.405 21.9018 137.313 22.7367 136.527C23.6114 135.741 24.665 135.072 25.8975 134.519C27.1697 133.965 28.6407 133.689 30.3106 133.689C32.378 133.689 34.1273 134.111 35.5586 134.955C36.9898 135.799 38.0434 136.891 38.7193 138.23C39.4349 139.598 39.7927 141.025 39.7927 142.51C39.7927 143.5 39.6536 144.489 39.3753 145.479C39.1367 146.469 38.8187 147.299 38.4211 147.968C38.3018 148.23 38.1428 148.405 37.944 148.492C37.785 148.58 37.5663 148.623 37.288 148.623L29.1775 148.754C29.0582 148.754 28.9588 148.667 28.8793 148.492C28.8395 148.347 28.8991 148.26 29.0582 148.23C31.4834 147.648 33.6701 146.862 35.6182 145.872C37.6061 144.911 38.6 143.456 38.6 141.505C38.6 140.195 38.0832 139.147 37.0495 138.361C36.0158 137.605 34.6044 137.226 32.8153 137.226ZM37.8844 161.411C37.8844 159.635 37.129 158.165 35.6182 157.001C34.1472 155.865 31.9009 154.992 28.8793 154.381C28.7998 154.381 28.76 154.293 28.76 154.119C28.76 153.973 28.8197 153.9 28.9389 153.9C30.4895 154.016 32.4774 154.147 34.9026 154.293C37.3675 154.439 39.2163 154.512 40.4487 154.512C40.6475 154.512 40.7469 154.584 40.7469 154.73C40.7469 154.905 40.6475 154.992 40.4487 154.992C39.5741 154.992 39.1367 155.807 39.1367 157.437C39.0175 159.941 38.9578 162.866 38.9578 166.214C38.9578 167.932 38.9976 169.751 39.0771 171.673L39.1367 174.642C39.1367 175.748 39.2361 176.549 39.4349 177.044C39.6337 177.568 40.0313 177.902 40.6277 178.048C40.7867 178.077 40.8662 178.164 40.8662 178.31C40.8662 178.456 40.7867 178.529 40.6277 178.529C39.3952 178.441 37.5266 178.354 35.0218 178.267C32.5171 178.179 30.4895 178.136 28.9389 178.136C28.8197 178.136 28.76 178.048 28.76 177.873C28.76 177.728 28.8197 177.64 28.9389 177.612C32.0003 177.32 34.2466 176.636 35.6778 175.559C37.1489 174.482 37.8844 173.027 37.8844 171.193C37.8844 170.377 37.785 169.766 37.5862 169.358C37.3874 168.98 37.0296 168.718 36.5127 168.572C36.0357 168.456 35.2604 168.398 34.1869 168.398L6.69456 168.398C5.46205 168.398 4.56751 168.485 4.01093 168.66C3.45435 168.834 3.0766 169.184 2.87784 169.708C2.67908 170.232 2.57965 171.062 2.57965 172.197C2.57965 172.284 2.46038 172.328 2.22184 172.328C1.98329 172.328 1.86402 172.284 1.86402 172.197C1.86402 171.178 1.88387 170.377 1.92365 169.795L1.98329 166.214L1.92365 162.808C1.88387 162.197 1.86402 161.352 1.86402 160.276C1.86402 160.217 1.98329 160.188 2.22184 160.188C2.46038 160.188 2.57966 160.217 2.57966 160.276C2.57966 161.411 2.67908 162.241 2.87784 162.765C3.0766 163.317 3.45435 163.682 4.01093 163.856C4.60729 164.06 5.50184 164.162 6.69456 164.162L34.3062 164.162C35.3399 164.162 36.0953 164.089 36.5724 163.944C37.0495 163.798 37.3874 163.536 37.5862 163.158C37.785 162.779 37.8844 162.197 37.8844 161.411ZM39.1367 207.246C39.1367 207.304 39.0175 207.334 38.7789 207.334C38.5404 207.334 38.4211 207.304 38.4211 207.246C38.4211 206.286 37.7254 205.194 36.3338 203.971C34.9821 202.748 33.2327 201.657 31.0858 200.696L20.0531 195.718L6.69456 195.718C5.46205 195.718 4.5675 195.791 4.01093 195.936C3.45435 196.111 3.07659 196.417 2.87784 196.853C2.67908 197.319 2.57965 198.047 2.57965 199.037C2.57965 199.124 2.46038 199.168 2.22184 199.168C1.98329 199.168 1.86402 199.124 1.86402 199.037C1.86402 198.076 1.88386 197.334 1.92365 196.81L1.98329 193.622L1.92365 190.478C1.88386 189.896 1.86402 189.124 1.86402 188.164C1.86402 188.106 1.98329 188.076 2.22184 188.076C2.46038 188.076 2.57965 188.106 2.57965 188.164C2.57965 189.154 2.67908 189.867 2.87784 190.303C3.07659 190.769 3.45435 191.089 4.01093 191.264C4.60729 191.439 5.50183 191.526 6.69456 191.526L18.9797 191.526L32.8153 184.888C34.9224 183.898 36.3736 183.04 37.1687 182.312C38.0037 181.613 38.4211 180.929 38.4211 180.26C38.4211 180.172 38.5404 180.129 38.7789 180.129C39.0175 180.129 39.1367 180.172 39.1367 180.26L39.0771 181.701C38.9976 182.341 38.9578 182.807 38.9578 183.098C38.9578 184.088 38.9976 185.485 39.0771 187.29L39.1367 189.998C39.1367 190.056 39.0175 190.085 38.7789 190.085C38.5404 190.085 38.4211 190.056 38.4211 189.998C38.4211 188.804 37.8645 188.207 36.7513 188.207C36.1947 188.207 35.5586 188.382 34.8429 188.731L21.544 195.063L31.5033 199.517C33.1334 200.245 34.5646 200.609 35.7971 200.609C37.5464 200.609 38.4211 199.808 38.4211 198.207C38.4211 198.149 38.5404 198.12 38.7789 198.12C39.0175 198.12 39.1367 198.149 39.1367 198.207L39.0771 200.478C38.9976 201.7 38.9578 202.822 38.9578 203.84C38.9578 204.335 38.9976 204.932 39.0771 205.631L39.1367 207.246ZM6.93311 215.946C5.85965 215.946 5.08438 216.004 4.60729 216.12C4.1302 216.266 3.81217 216.528 3.6531 216.906C3.49404 217.284 3.41456 217.896 3.41456 218.74L3.41456 221.36C3.41456 223.427 4.18984 225.174 5.74038 226.601C7.33071 228.027 9.45768 228.973 12.1215 229.439C12.2407 229.468 12.2805 229.555 12.2407 229.701C12.2407 229.846 12.1811 229.919 12.0618 229.919C8.32459 229.657 5.2235 229.526 2.75856 229.526C2.44053 229.526 2.20199 229.483 2.04293 229.395C1.92365 229.308 1.86402 229.133 1.86402 228.871L1.86402 208.435C1.86402 208.376 1.98329 208.347 2.22183 208.347C2.46038 208.347 2.57965 208.376 2.57965 208.435C2.57965 209.424 2.67908 210.137 2.87784 210.575C3.07659 211.04 3.45435 211.346 4.01093 211.492C4.60729 211.666 5.50183 211.754 6.69456 211.754L34.3062 211.754C35.4989 211.754 36.3736 211.666 36.9302 211.492C37.4868 211.346 37.8645 211.04 38.0633 210.575C38.3018 210.109 38.4211 209.395 38.4211 208.435C38.4211 208.376 38.5404 208.347 38.7789 208.347C39.0175 208.347 39.1367 208.376 39.1367 208.435L39.0771 210.662C38.9976 211.943 38.9578 212.991 38.9578 213.806C38.9578 214.679 38.9976 215.756 39.0771 217.037L39.1367 219.221C39.1367 219.308 39.0175 219.352 38.7789 219.352C38.5404 219.352 38.4211 219.308 38.4211 219.221C38.4211 218.26 38.3018 217.546 38.0633 217.081C37.8645 216.644 37.4669 216.339 36.8706 216.164C36.314 216.018 35.4393 215.946 34.2466 215.946L6.93311 215.946ZM6.69456 240.182C5.46204 240.182 4.5675 240.254 4.01093 240.4C3.45435 240.545 3.07659 240.837 2.87784 241.273C2.67908 241.739 2.57965 242.467 2.57965 243.457C2.57965 243.544 2.46038 243.588 2.22183 243.588C1.98329 243.588 1.86401 243.544 1.86401 243.457C1.86401 242.525 1.88386 241.782 1.92365 241.23L1.98329 237.998L1.92365 234.854C1.88386 234.301 1.86401 233.544 1.86401 232.584C1.86401 232.496 1.98329 232.453 2.22183 232.453C2.46038 232.453 2.57965 232.496 2.57965 232.584C2.57965 233.573 2.67908 234.287 2.87784 234.723C3.07659 235.189 3.45435 235.509 4.01093 235.684C4.60729 235.859 5.50183 235.946 6.69456 235.946L34.3062 235.946C35.4989 235.946 36.3736 235.859 36.9302 235.684C37.4868 235.509 37.8645 235.189 38.0633 234.723C38.3018 234.287 38.4211 233.573 38.4211 232.584C38.4211 232.496 38.5404 232.453 38.7789 232.453C39.0175 232.453 39.1367 232.496 39.1367 232.584L39.0771 234.854C38.9976 236.135 38.9578 237.183 38.9578 237.998C38.9578 238.9 38.9976 239.992 39.0771 241.273L39.1367 243.457C39.1367 243.544 39.0175 243.588 38.7789 243.588C38.5404 243.588 38.4211 243.544 38.4211 243.457C38.4211 242.496 38.3018 241.783 38.0633 241.317C37.8247 240.88 37.4073 240.575 36.8109 240.4C36.2543 240.254 35.3797 240.182 34.1869 240.182L6.69456 240.182ZM32.8153 252.621C31.3442 252.621 30.0322 252.883 28.8793 253.407C27.766 253.96 26.792 254.63 25.9571 255.416C25.1222 256.231 24.1282 257.323 22.9753 258.691C21.7031 260.175 20.6097 261.34 19.6953 262.184C18.7809 263.057 17.6478 263.785 16.296 264.368C14.984 264.979 13.4335 265.285 11.6444 265.285C9.61674 265.285 7.8078 264.892 6.21747 264.105C4.62714 263.349 3.37477 262.257 2.46038 260.83C1.58568 259.433 1.14838 257.832 1.14838 256.027C1.14838 254.804 1.36708 253.538 1.80438 252.228C2.24168 250.947 2.77841 249.972 3.41456 249.302C3.65311 249.04 4.03077 248.895 4.54765 248.866L13.6124 248.604L13.672 248.604C13.8311 248.604 13.9106 248.677 13.9106 248.822C13.9503 248.967 13.8907 249.055 13.7317 249.084C10.4318 250.045 7.72823 251.136 5.62111 252.359C3.51399 253.611 2.46038 255.197 2.46038 257.119C2.46038 258.371 2.91762 259.419 3.83202 260.263C4.7862 261.107 6.35659 261.529 8.54329 261.529C10.2926 261.529 11.8233 261.238 13.1353 260.656C14.4473 260.102 15.5406 259.404 16.4153 258.56C17.29 257.744 18.3634 256.624 19.6357 255.197C20.8682 253.8 21.9018 252.708 22.7367 251.922C23.6114 251.136 24.665 250.467 25.8975 249.914C27.1697 249.36 28.6407 249.084 30.3106 249.084C32.378 249.084 34.1273 249.506 35.5586 250.35C36.9898 251.194 38.0434 252.286 38.7193 253.625C39.4349 254.993 39.7927 256.42 39.7927 257.905C39.7927 258.895 39.6536 259.884 39.3753 260.874C39.1367 261.864 38.8187 262.694 38.4211 263.363C38.3018 263.625 38.1428 263.8 37.944 263.887C37.785 263.974 37.5663 264.018 37.288 264.018L29.1775 264.149C29.0582 264.149 28.9588 264.062 28.8793 263.887C28.8395 263.742 28.8991 263.654 29.0582 263.625C31.4834 263.043 33.6701 262.257 35.6182 261.267C37.6061 260.306 38.6 258.851 38.6 256.9C38.6 255.59 38.0832 254.542 37.0495 253.756C36.0158 253 34.6044 252.621 32.8153 252.621ZM2.57965 299.426C2.57965 299.513 2.46038 299.557 2.22183 299.557C1.98329 299.557 1.86401 299.513 1.86401 299.426C1.86401 298.436 1.88386 297.635 1.92365 297.024L1.98329 293.836L1.92365 290.125C1.88386 289.601 1.86401 288.902 1.86401 288.029C1.86401 287.941 1.98329 287.897 2.22183 287.897C2.46038 287.897 2.57965 287.941 2.57965 288.029C2.57965 289.135 2.67908 289.935 2.87783 290.43C3.07659 290.925 3.45435 291.26 4.01092 291.435C4.5675 291.609 5.46204 291.697 6.69456 291.697L20.4706 291.697L20.4706 276.719L6.69456 276.719C5.50183 276.719 4.60729 276.806 4.01092 276.981C3.45435 277.155 3.07659 277.49 2.87783 277.985C2.67908 278.509 2.57965 279.324 2.57965 280.43C2.57965 280.488 2.46038 280.518 2.22183 280.518C1.98329 280.518 1.86401 280.488 1.86401 280.43C1.86401 279.44 1.88386 278.669 1.92365 278.116L1.98329 274.492L1.92365 271.304C1.88386 270.75 1.86401 269.979 1.86401 268.989C1.86401 268.931 1.98329 268.902 2.22183 268.902C2.46038 268.902 2.57965 268.931 2.57965 268.989C2.57965 270.037 2.67908 270.808 2.87783 271.304C3.07659 271.798 3.45435 272.134 4.01092 272.308C4.60729 272.483 5.50183 272.57 6.69456 272.57L34.3062 272.57C35.4989 272.57 36.3736 272.483 36.9302 272.308C37.4868 272.134 37.8645 271.798 38.0633 271.304C38.3018 270.808 38.4211 270.052 38.4211 269.032C38.4211 268.974 38.5404 268.946 38.7789 268.946C39.0175 268.946 39.1367 268.974 39.1367 269.032L39.0771 271.347C38.9976 272.686 38.9578 273.734 38.9578 274.492C38.9578 275.51 38.9976 276.719 39.0771 278.116L39.1367 280.43C39.1367 280.488 39.0175 280.518 38.7789 280.518C38.5404 280.518 38.4211 280.488 38.4211 280.43C38.4211 279.353 38.3018 278.553 38.0633 278.029C37.8247 277.533 37.4073 277.184 36.8109 276.981C36.2543 276.806 35.3797 276.719 34.1869 276.719L22.0211 276.719L22.0211 291.697L34.1869 291.697C35.3797 291.697 36.2543 291.609 36.8109 291.435C37.4073 291.26 37.8247 290.911 38.0633 290.387C38.3018 289.891 38.4211 289.105 38.4211 288.029C38.4211 287.941 38.5404 287.897 38.7789 287.897C39.0175 287.897 39.1367 287.941 39.1367 288.029L39.0771 290.125C38.9976 291.522 38.9578 292.759 38.9578 293.836C38.9578 294.622 38.9976 295.685 39.0771 297.024L39.1367 299.426C39.1367 299.513 39.0175 299.557 38.7789 299.557C38.5404 299.557 38.4211 299.513 38.4211 299.426C38.4211 298.378 38.3018 297.606 38.0633 297.111C37.8645 296.645 37.4868 296.325 36.9302 296.151C36.3736 295.976 35.4989 295.889 34.3062 295.889L6.69456 295.889C5.50183 295.889 4.60729 295.976 4.01092 296.151C3.45435 296.325 3.07659 296.645 2.87783 297.111C2.67908 297.606 2.57965 298.378 2.57965 299.426ZM1.14837 327.071C1.14837 324.364 2.00313 321.947 3.71274 319.823C5.46204 317.727 7.8078 316.096 10.7498 314.932C13.7316 313.796 16.9719 313.229 20.4706 313.229C24.5656 313.229 28.0642 313.985 30.9666 315.499C33.9086 317.013 36.1152 318.949 37.5862 321.307C39.0572 323.694 39.7927 326.125 39.7927 328.6C39.7927 331.365 38.8982 333.796 37.1091 335.892C35.3598 337.988 33.034 339.589 30.1316 340.696C27.2293 341.831 24.1482 342.399 20.888 342.399C17.27 342.399 13.9503 341.7 10.9287 340.303C7.90713 338.905 5.52168 337.028 3.77237 334.67C2.02307 332.34 1.14837 329.807 1.14837 327.071ZM2.57965 328.556C2.57965 330.303 3.2158 331.86 4.48801 333.229C5.80002 334.626 7.70837 335.718 10.2131 336.504C12.7178 337.318 15.6996 337.726 19.1586 337.726C22.8162 337.726 26.0962 337.275 28.9986 336.373C31.9009 335.499 34.167 334.233 35.7971 332.574C37.4272 330.943 38.2422 329.021 38.2422 326.809C38.2422 323.985 36.8507 321.788 34.0676 320.216C31.3244 318.672 27.5076 317.901 22.6175 317.901C18.8405 317.901 15.4213 318.352 12.36 319.255C9.29871 320.186 6.89332 321.453 5.14401 323.054C3.43441 324.684 2.57965 326.518 2.57965 328.556ZM39.1367 375.832C39.1367 375.89 39.0175 375.919 38.7789 375.919C38.5404 375.919 38.4211 375.89 38.4211 375.832C38.4211 374.667 37.8446 373.764 36.6916 373.124C35.5784 372.484 33.9683 372.164 31.8611 372.164L1.0291 372.164C0.909827 372.164 0.830344 372.091 0.790557 371.945C0.750766 371.799 0.770705 371.698 0.850192 371.64L33.352 351.16L9.08001 351.16C6.97289 351.16 5.36271 351.465 4.24947 352.077C3.13622 352.688 2.57965 353.576 2.57965 354.74C2.57965 354.798 2.46037 354.828 2.22183 354.828C1.98328 354.828 1.86401 354.798 1.86401 354.74C1.86401 353.954 1.88386 353.357 1.92364 352.95L1.98328 350.635L1.92365 348.059C1.88386 347.593 1.86401 346.924 1.86401 346.05C1.86401 345.963 1.98328 345.919 2.22183 345.919C2.46037 345.919 2.57965 345.963 2.57965 346.05C2.57965 347.302 3.13622 348.262 4.24947 348.932C5.36271 349.631 6.97289 349.98 9.08001 349.98L35.2007 349.98C36.3935 349.165 37.2284 348.423 37.7055 347.753C38.1826 347.113 38.4211 346.443 38.4211 345.745C38.4211 345.686 38.5404 345.657 38.7789 345.657C39.0175 345.657 39.1367 345.686 39.1367 345.745L39.0771 347.491C39.0373 347.869 39.0175 348.408 39.0175 349.107L39.0771 351.902C39.1169 352.251 39.1367 352.673 39.1367 353.168C39.1367 353.401 39.0572 353.576 38.8982 353.692C38.7392 353.808 38.4211 353.983 37.944 354.216C37.0296 354.711 36.3935 355.075 36.0356 355.308L10.7498 370.985L31.8611 370.985C33.9683 370.985 35.5784 370.679 36.6916 370.068C37.8446 369.456 38.4211 368.583 38.4211 367.448C38.4211 367.389 38.5404 367.36 38.7789 367.36C39.0175 367.36 39.1367 367.389 39.1367 367.448L39.0771 369.238C38.9976 370.169 38.9578 370.941 38.9578 371.552C38.9578 372.134 38.9976 372.92 39.0771 373.91L39.1367 375.832ZM37.8844 385.719C37.8844 383.943 37.129 382.473 35.6182 381.309C34.1472 380.173 31.9009 379.3 28.8793 378.689C28.7998 378.689 28.76 378.601 28.76 378.427C28.76 378.28 28.8196 378.208 28.9389 378.208C30.4895 378.324 32.4773 378.455 34.9026 378.601C37.3675 378.746 39.2163 378.82 40.4487 378.82C40.6475 378.82 40.7469 378.892 40.7469 379.038C40.7469 379.213 40.6475 379.3 40.4487 379.3C39.5741 379.3 39.1367 380.115 39.1367 381.745C39.0175 384.249 38.9578 387.174 38.9578 390.522C38.9578 392.24 38.9976 394.059 39.0771 395.981L39.1367 398.95C39.1367 400.056 39.2361 400.857 39.4349 401.352C39.6337 401.876 40.0313 402.21 40.6276 402.356C40.7867 402.385 40.8662 402.472 40.8662 402.618C40.8662 402.764 40.7867 402.837 40.6276 402.837C39.3952 402.749 37.5266 402.662 35.0218 402.575C32.5171 402.487 30.4895 402.444 28.9389 402.444C28.8196 402.444 28.76 402.356 28.76 402.181C28.76 402.036 28.8196 401.948 28.9389 401.92C32.0002 401.628 34.2466 400.944 35.6778 399.867C37.1489 398.79 37.8844 397.335 37.8844 395.501C37.8844 394.685 37.785 394.074 37.5862 393.666C37.3874 393.288 37.0296 393.026 36.5127 392.88C36.0356 392.764 35.2604 392.706 34.1869 392.706L6.69455 392.706C5.46204 392.706 4.5675 392.793 4.01092 392.968C3.45434 393.142 3.07659 393.492 2.87783 394.016C2.67907 394.54 2.57965 395.37 2.57964 396.505C2.57964 396.592 2.46037 396.636 2.22183 396.636C1.98328 396.636 1.86401 396.592 1.86401 396.505C1.86401 395.486 1.88386 394.685 1.92364 394.103L1.98328 390.522L1.92364 387.116C1.88386 386.505 1.86401 385.66 1.86401 384.584C1.86401 384.525 1.98328 384.496 2.22183 384.496C2.46037 384.496 2.57965 384.525 2.57965 384.584C2.57965 385.719 2.67907 386.549 2.87783 387.073C3.07659 387.625 3.45434 387.99 4.01092 388.164C4.60728 388.368 5.50183 388.47 6.69455 388.47L34.3062 388.47C35.3399 388.47 36.0953 388.397 36.5724 388.252C37.0495 388.106 37.3874 387.844 37.5862 387.466C37.785 387.087 37.8844 386.505 37.8844 385.719ZM2.57964 432.414C2.57964 432.559 2.46037 432.632 2.22182 432.632C1.98328 432.632 1.86401 432.559 1.86401 432.414C1.86401 431.861 1.90379 430.973 1.98328 429.75C2.06276 428.527 2.10255 427.64 2.10255 427.086C2.10255 426.358 2.06276 425.5 1.98328 424.51C1.90379 423.52 1.86401 422.749 1.86401 422.196C1.86401 422.079 1.98328 422.021 2.22183 422.021C2.46037 422.021 2.57964 422.079 2.57964 422.196C2.57964 423.04 2.69892 423.651 2.93746 424.03C3.2158 424.437 3.6531 424.641 4.24946 424.641C4.84583 424.641 5.85965 424.393 7.29092 423.899L20.3513 419.183L20.3513 411.279L10.0342 407.916C8.84147 407.538 7.76801 407.349 6.81383 407.349C5.42234 407.349 4.36873 407.712 3.6531 408.44C2.93746 409.168 2.57964 410.187 2.57964 411.497C2.57964 411.643 2.46037 411.716 2.22183 411.716C1.98328 411.716 1.86401 411.643 1.86401 411.497C1.86401 410.973 1.90379 410.216 1.98328 409.226C2.06276 408.12 2.10256 407.16 2.10256 406.344C2.10256 405.558 2.06276 404.641 1.98328 403.593C1.90379 402.662 1.86401 401.89 1.86401 401.279C1.86401 401.134 1.98328 401.061 2.22183 401.061C2.46037 401.061 2.57964 401.134 2.57964 401.279C2.57964 402.094 2.79834 402.778 3.23565 403.331C3.67295 403.885 4.44822 404.423 5.56146 404.947C6.7144 405.471 8.40416 406.097 10.6306 406.825L39.4946 416.213C39.6138 416.271 39.6735 416.402 39.6735 416.606C39.6735 416.81 39.6138 416.926 39.4946 416.956L10.0342 427.654C7.17165 428.673 5.20364 429.518 4.13019 430.187C3.09652 430.886 2.57964 431.628 2.57964 432.414ZM21.8422 411.759L21.8422 418.659L31.8611 415.034L21.8422 411.759ZM2.57964 462.935C2.57964 463.022 2.46037 463.066 2.22182 463.066C1.98328 463.066 1.864 463.022 1.864 462.935L1.86401 455.904C1.86401 455.235 3.51398 453.983 6.81383 452.149C10.1535 450.344 14.8051 448.132 20.7687 445.511C20.6495 445.045 20.5898 444.565 20.5898 444.07C20.5898 442.993 20.6097 442.236 20.6495 441.8L6.69455 441.8C5.46204 441.8 4.56749 441.873 4.01092 442.018C3.45434 442.193 3.07658 442.498 2.87783 442.935C2.67907 443.401 2.57964 444.128 2.57964 445.118C2.57964 445.176 2.46037 445.206 2.22182 445.206C1.98328 445.206 1.86401 445.176 1.86401 445.118C1.86401 444.158 1.88385 443.415 1.92364 442.891L1.98328 439.66L1.92364 436.516C1.88385 435.963 1.86401 435.206 1.86401 434.245C1.86401 434.158 1.98328 434.114 2.22182 434.114C2.46037 434.114 2.57964 434.158 2.57964 434.245C2.57964 435.235 2.67907 435.948 2.87783 436.385C3.07658 436.851 3.45434 437.171 4.01092 437.346C4.60728 437.52 5.50182 437.608 6.69455 437.608L34.3062 437.608C35.4989 437.608 36.3736 437.52 36.9302 437.346C37.4868 437.2 37.8645 436.895 38.0633 436.429C38.3018 435.963 38.4211 435.25 38.4211 434.289C38.4211 434.231 38.5404 434.202 38.7789 434.202C39.0175 434.202 39.1367 434.231 39.1367 434.289L39.0771 436.56C38.9976 437.84 38.9578 438.874 38.9578 439.66C38.9578 440.533 39.0175 441.45 39.1367 442.411C39.1765 442.76 39.2163 443.183 39.256 443.677C39.2958 444.172 39.3156 444.711 39.3156 445.293C39.3156 447.884 38.6596 449.878 37.3476 451.276C36.0356 452.673 34.1869 453.372 31.8015 453.372C29.9329 453.372 28.1636 452.964 26.4938 452.149C24.824 451.334 23.4722 450.271 22.4386 448.961C17.4291 451.349 13.4931 453.342 10.6306 454.944C7.8078 456.574 5.76022 458.015 4.48801 459.267C3.2158 460.519 2.57964 461.741 2.57964 462.935ZM22.3193 441.8C22.1602 442.498 22.0807 443.342 22.0807 444.332C22.0807 446.079 22.6175 447.302 23.6909 448.001C24.7644 448.699 26.7324 449.049 29.5949 449.049C32.8153 449.049 35.0417 448.656 36.2742 447.87C37.5464 447.083 38.1826 445.977 38.1826 444.551C38.1826 443.503 37.9043 442.775 37.3476 442.367C36.791 441.989 35.7375 441.8 34.1869 441.8L22.3193 441.8ZM6.69455 472.08C5.46203 472.08 4.56749 472.153 4.01092 472.299C3.45434 472.444 3.07658 472.735 2.87783 473.172C2.67907 473.637 2.57964 474.365 2.57964 475.355C2.57964 475.443 2.46037 475.487 2.22182 475.487C1.98328 475.487 1.864 475.443 1.864 475.355C1.864 474.423 1.88385 473.681 1.92364 473.128L1.98328 469.897L1.92364 466.753C1.88385 466.2 1.864 465.443 1.864 464.482C1.864 464.395 1.98328 464.351 2.22182 464.351C2.46037 464.351 2.57964 464.395 2.57964 464.482C2.57964 465.472 2.67907 466.185 2.87783 466.622C3.07658 467.087 3.45434 467.408 4.01092 467.583C4.60728 467.757 5.50182 467.845 6.69455 467.845L34.3062 467.845C35.4989 467.845 36.3736 467.757 36.9302 467.583C37.4868 467.408 37.8645 467.087 38.0633 466.622C38.3018 466.185 38.4211 465.472 38.4211 464.482C38.4211 464.395 38.5404 464.351 38.7789 464.351C39.0175 464.351 39.1367 464.395 39.1367 464.482L39.0771 466.753C38.9976 468.034 38.9578 469.082 38.9578 469.897C38.9578 470.799 38.9976 471.891 39.0771 473.172L39.1367 475.355C39.1367 475.443 39.0175 475.487 38.7789 475.487C38.5404 475.487 38.4211 475.443 38.4211 475.355C38.4211 474.395 38.3018 473.681 38.0633 473.216C37.8247 472.779 37.4073 472.473 36.8109 472.299C36.2543 472.153 35.3796 472.08 34.1869 472.08L6.69455 472.08ZM1.14837 493.34C1.14837 490.633 2.00313 488.217 3.71273 486.092C5.46203 483.996 7.80779 482.366 10.7498 481.201C13.7316 480.065 16.9719 479.498 20.4706 479.498C24.5656 479.498 28.0642 480.254 30.9666 481.768C33.9086 483.283 36.1152 485.218 37.5862 487.576C39.0572 489.964 39.7927 492.394 39.7927 494.869C39.7927 497.634 38.8982 500.065 37.1091 502.161C35.3598 504.257 33.0339 505.859 30.1316 506.965C27.2293 508.1 24.1482 508.668 20.888 508.668C17.27 508.668 13.9503 507.969 10.9287 506.572C7.90712 505.174 5.52167 503.297 3.77237 500.939C2.02306 498.61 1.14837 496.077 1.14837 493.34ZM2.57964 494.825C2.57964 496.572 3.21579 498.13 4.48801 499.498C5.80001 500.895 7.70837 501.987 10.2131 502.773C12.7178 503.588 15.6996 503.995 19.1585 503.995C22.8162 503.995 26.0962 503.544 28.9985 502.642C31.9009 501.768 34.167 500.502 35.7971 498.842C37.4272 497.212 38.2422 495.291 38.2422 493.078C38.2422 490.254 36.8507 488.057 34.0676 486.485C31.3244 484.942 27.5076 484.17 22.6175 484.17C18.8405 484.17 15.4213 484.621 12.36 485.524C9.2987 486.455 6.89331 487.722 5.14401 489.323C3.4344 490.953 2.57964 492.787 2.57964 494.825Z" fill="#FF0000"/>
</g>
<defs>
<clipPath id="clip0_23_156">
<rect width="509" height="41" fill="white" transform="translate(41) rotate(90)"/>
</clipPath>
</defs>
</svg>
