<svg width="39" height="20" viewBox="0 0 39 20" fill="none" xmlns="http://www.w3.org/2000/svg">
<g clip-path="url(#clip0_19_66)">
<path d="M13.1357 0.476169C13.1639 0.476169 13.178 0.537122 13.178 0.659026C13.178 0.780931 13.1639 0.841884 13.1357 0.841884C12.6704 0.841884 12.1416 1.19744 11.5493 1.90855C10.957 2.59935 10.4282 3.49331 9.96285 4.59046L7.55146 10.2285V17.0552C7.55146 17.6851 7.58672 18.1422 7.65722 18.4266C7.74183 18.7111 7.8899 18.9041 8.10142 19.0057C8.32706 19.1073 8.67958 19.1581 9.15905 19.1581C9.20136 19.1581 9.22251 19.219 9.22251 19.3409C9.22251 19.4628 9.20136 19.5238 9.15905 19.5238C8.6937 19.5238 8.3341 19.5136 8.08027 19.4933L6.53614 19.4628L5.01315 19.4933C4.73113 19.5136 4.35742 19.5238 3.89207 19.5238C3.86388 19.5238 3.84976 19.4628 3.84976 19.3409C3.84976 19.219 3.86388 19.1581 3.89207 19.1581C4.37154 19.1581 4.71702 19.1073 4.92854 19.0057C5.15418 18.9041 5.30929 18.7111 5.3939 18.4266C5.47851 18.1219 5.52081 17.6647 5.52081 17.0552V10.7771L2.30563 3.70665C1.82617 2.62982 1.41017 1.88823 1.05763 1.48188C0.719186 1.05522 0.387796 0.841884 0.0634576 0.841884C0.0211525 0.841884 0 0.780931 0 0.659026C0 0.537122 0.0211525 0.476169 0.0634576 0.476169L0.761491 0.506645C1.07173 0.547279 1.29735 0.567598 1.43837 0.567598C1.91783 0.567598 2.59471 0.547279 3.46902 0.506645L4.78047 0.476169C4.80867 0.476169 4.82278 0.537122 4.82278 0.659026C4.82278 0.780931 4.80867 0.841884 4.78047 0.841884C4.20232 0.841884 3.91322 1.12633 3.91322 1.69522C3.91322 1.97966 3.99783 2.30474 4.16705 2.67045L7.23417 9.46665L9.39173 4.37712C9.74428 3.5441 9.92054 2.81267 9.92054 2.18284C9.92054 1.28887 9.53276 0.841884 8.75715 0.841884C8.72896 0.841884 8.71485 0.780931 8.71485 0.659026C8.71485 0.537122 8.72896 0.476169 8.75715 0.476169L9.85708 0.506645C10.4494 0.547279 10.9923 0.567598 11.4858 0.567598C11.7255 0.567598 12.0146 0.547279 12.3531 0.506645L13.1357 0.476169ZM16.5034 3.70665C16.5034 4.45839 16.6304 5.12888 16.8842 5.71807C17.1521 6.28698 17.4765 6.78474 17.8572 7.21141C18.2521 7.63807 18.7809 8.14603 19.4436 8.73522C20.1628 9.38536 20.7269 9.94412 21.1359 10.4114C21.5589 10.8787 21.9115 11.4577 22.1935 12.1486C22.4896 12.819 22.6377 13.6114 22.6377 14.5257C22.6377 15.5619 22.4473 16.4863 22.0666 17.299C21.6999 18.1117 21.1711 18.7517 20.4801 19.219C19.8032 19.666 19.0276 19.8895 18.1533 19.8895C17.5611 19.8895 16.9476 19.7777 16.3131 19.5543C15.6926 19.3308 15.2202 19.0565 14.8959 18.7314C14.7689 18.6095 14.6984 18.4165 14.6843 18.1524L14.5574 13.52V13.4895C14.5574 13.4082 14.5927 13.3676 14.6632 13.3676C14.7337 13.3473 14.776 13.3777 14.7901 13.459C15.2554 15.1454 15.7843 16.527 16.3765 17.6038C16.9829 18.6806 17.7514 19.219 18.6822 19.219C19.2885 19.219 19.7962 18.9854 20.2051 18.5181C20.6141 18.0305 20.8186 17.2279 20.8186 16.1105C20.8186 15.2165 20.6775 14.4343 20.3955 13.7638C20.1276 13.0933 19.7891 12.5346 19.3802 12.0876C18.9853 11.6406 18.4424 11.092 17.7514 10.4419C17.0746 9.81203 16.5457 9.28379 16.165 8.85712C15.7843 8.41012 15.4599 7.87174 15.192 7.24188C14.924 6.59174 14.7901 5.83998 14.7901 4.98665C14.7901 3.93014 14.9946 3.03617 15.4035 2.30474C15.8125 1.57331 16.3413 1.0349 16.99 0.689503C17.6527 0.323787 18.3437 0.14093 19.0629 0.14093C19.5424 0.14093 20.0218 0.212042 20.5013 0.354264C20.9807 0.476169 21.3826 0.638707 21.707 0.841884C21.8339 0.902836 21.9185 0.984107 21.9608 1.08569C22.0031 1.16696 22.0243 1.27871 22.0243 1.42093L22.0877 5.56569C22.0877 5.62665 22.0454 5.67746 21.9608 5.71807C21.8903 5.73841 21.848 5.70793 21.8339 5.62665C21.5519 4.38728 21.1711 3.26982 20.6916 2.27426C20.2263 1.25839 19.5212 0.750455 18.5764 0.750455C17.9418 0.750455 17.4342 1.01458 17.0534 1.54284C16.6868 2.07109 16.5034 2.79236 16.5034 3.70665ZM31.4971 19.8895C30.1857 19.8895 29.0152 19.4527 27.9858 18.579C26.9705 17.6851 26.1808 16.4863 25.6167 14.9828C25.0668 13.459 24.7918 11.8032 24.7918 10.0152C24.7918 7.9225 25.1584 6.1346 25.8917 4.65141C26.625 3.14791 27.5628 2.02029 28.705 1.26855C29.8613 0.516803 31.0388 0.14093 32.2375 0.14093C33.577 0.14093 34.7546 0.598074 35.7699 1.51236C36.7853 2.40633 37.561 3.5949 38.0967 5.07807C38.6467 6.56126 38.9217 8.13584 38.9217 9.80188C38.9217 11.6508 38.5832 13.3473 37.9063 14.8914C37.2295 16.4356 36.3199 17.6546 35.1777 18.5485C34.0496 19.4425 32.8227 19.8895 31.4971 19.8895ZM32.2163 19.1581C33.0624 19.1581 33.817 18.833 34.4796 18.1828C35.1565 17.5124 35.6853 16.5371 36.0661 15.2571C36.461 13.9771 36.6583 12.4533 36.6583 10.6857C36.6583 8.8165 36.4399 7.14031 36.0026 5.65712C35.5796 4.17395 34.9661 3.01585 34.1623 2.18284C33.3728 1.34982 32.442 0.933312 31.3702 0.933312C30.0023 0.933312 28.9377 1.64442 28.1762 3.06665C27.4288 4.46855 27.0551 6.41903 27.0551 8.91807C27.0551 10.8482 27.2737 12.5956 27.7108 14.16C28.1621 15.7244 28.7755 16.9536 29.5511 17.8476C30.3408 18.7213 31.2292 19.1581 32.2163 19.1581Z" fill="#FF0000"/>
</g>
<defs>
<clipPath id="clip0_19_66">
<rect width="39" height="20" fill="white"/>
</clipPath>
</defs>
</svg>
