<svg width="23" height="23" viewBox="0 0 23 23" fill="none" xmlns="http://www.w3.org/2000/svg">
<path d="M20.8441 19.8274L15.4161 14.3994C16.7204 12.8335 17.3709 10.825 17.2321 8.79169C17.0933 6.75839 16.176 4.85688 14.6709 3.48272C13.1658 2.10856 11.1889 1.36755 9.15141 1.41385C7.11391 1.46015 5.17269 2.29018 3.73159 3.73128C2.29049 5.17239 1.46045 7.1136 1.41416 9.1511C1.36786 11.1886 2.10887 13.1655 3.48303 14.6706C4.85719 16.1757 6.7587 17.093 8.79199 17.2318C10.8253 17.3706 12.8338 16.7201 14.3998 15.4158L19.8278 20.8438L20.8441 19.8274ZM2.87531 9.34376C2.87531 8.06436 3.2547 6.81369 3.96549 5.74991C4.67629 4.68613 5.68657 3.85702 6.86858 3.36741C8.05059 2.87781 9.35124 2.7497 10.6061 2.9993C11.8609 3.2489 13.0135 3.86499 13.9182 4.76966C14.8228 5.67433 15.4389 6.82695 15.6885 8.08177C15.9381 9.33658 15.81 10.6372 15.3204 11.8192C14.8308 13.0012 14.0017 14.0115 12.9379 14.7223C11.8741 15.4331 10.6235 15.8125 9.34406 15.8125C7.62903 15.8106 5.98478 15.1285 4.77207 13.9158C3.55935 12.703 2.87721 11.0588 2.87531 9.34376Z" fill="#FF0000"/>
</svg>
